<svg xmlns="http://www.w3.org/2000/svg" xmlns:xlink="http://www.w3.org/1999/xlink" version="1.1" width="256" height="256" viewBox="0 0 256 256" xml:space="preserve">

<defs>
</defs>
<g style="stroke: none; stroke-width: 0; stroke-dasharray: none; stroke-linecap: butt; stroke-linejoin: miter; stroke-miterlimit: 10; fill: none; fill-rule: nonzero; opacity: 1;" transform="translate(1.4065934065934016 1.4065934065934016) scale(2.81 2.81)" >
	<path d="M 66.134 90 c 0.262 0 0.52 -0.104 0.712 -0.298 L 89.712 66.52 c 0.384 -0.39 0.384 -1.015 0 -1.404 L 66.846 41.933 c -0.285 -0.29 -0.718 -0.376 -1.091 -0.223 c -0.375 0.154 -0.621 0.52 -0.621 0.925 V 64.81 C 30.23 64.275 2 35.856 2 1 c 0 -0.552 -0.447 -1 -1 -1 S 0 0.448 0 1 c 0 36.292 29.668 65.817 66.134 65.817 c 0.552 0 1 -0.447 1 -1 V 45.073 l 20.461 20.745 L 67.134 86.563 V 76.523 c 0 -0.553 -0.448 -1 -1 -1 s -1 0.447 -1 1 V 89 c 0 0.405 0.245 0.771 0.621 0.925 C 65.877 89.976 66.006 90 66.134 90 z" style="stroke: none; stroke-width: 1; stroke-dasharray: none; stroke-linecap: butt; stroke-linejoin: miter; stroke-miterlimit: 10; fill: rgb(255, 255, 255); fill-rule: nonzero; opacity: 1;" transform=" matrix(1 0 0 1 0 0) " stroke-linecap="round" />
</g>
</svg>