<?xml version="1.0" encoding="utf-8" ?>	<!-- Generator: Assembly 2.4 - http://assemblyapp.co -->	<svg version="1.1" xmlns="http://www.w3.org/2000/svg" xmlns:xlink="http://www.w3.org/1999/xlink" width="4096.00" height="4096.00" viewBox="0 0 4096.0 4096.0">		<g id="document" transform="scale(13.653333333333334 13.653333333333334) translate(150.0 150.0)">			<g>				<path d="M-46.8675,-36.9906 C-46.083,-36.2062 -45.0532,-35.8119 -44.0233,-35.8119 C-42.9934,-35.8119 -41.9635,-36.2062 -41.179,-36.9906 C-39.6061,-38.5636 -39.6061,-41.1061 -41.179,-42.6791 C-45.2623,-46.7664 -45.2623,-53.4124 -41.179,-57.4997 C-37.6791,-60.9997 -35.748,-65.6502 -35.748,-70.5985 C-35.748,-75.5467 -37.675,-80.1972 -41.179,-83.6972 C-42.752,-85.2702 -45.2945,-85.2702 -46.8675,-83.6972 C-48.4405,-82.1242 -48.4405,-79.5817 -46.8675,-78.0087 C-44.8882,-76.0295 -43.794,-73.3984 -43.794,-70.5985 C-43.794,-67.7985 -44.8842,-65.1675 -46.8675,-63.1882 C-54.0887,-55.9669 -54.0887,-44.2118 -46.8675,-36.9906 Z " fill="#fff" fill-opacity="1.00" />				<path d="M41.6376,-36.9906 C42.4221,-36.2062 43.452,-35.8119 44.4819,-35.8119 C45.5118,-35.8119 46.5416,-36.2062 47.3261,-36.9906 C48.8991,-38.5636 48.8991,-41.1061 47.3261,-42.6791 C43.2428,-46.7664 43.2428,-53.4124 47.3261,-57.4997 C50.8261,-60.9997 52.7571,-65.6502 52.7571,-70.5985 C52.7571,-75.5467 50.8301,-80.1972 47.3261,-83.6972 C45.7531,-85.2702 43.2106,-85.2702 41.6376,-83.6972 C40.0647,-82.1242 40.0647,-79.5817 41.6376,-78.0087 C43.6169,-76.0295 44.7112,-73.3984 44.7112,-70.5985 C44.7112,-67.7985 43.621,-65.1675 41.6376,-63.1882 C34.4164,-55.9669 34.4164,-44.2118 41.6376,-36.9906 Z " fill="#fff" fill-opacity="1.00" />				<path d="M-2.61492,-61.1284 C-1.83045,-60.3439 -0.800568,-59.9497 0.22931,-59.9497 C1.25919,-59.9497 2.28907,-60.3439 3.07354,-61.1284 C4.64652,-62.7014 4.64652,-65.2439 3.07354,-66.8169 C-1.00976,-70.9042 -1.00976,-77.5501 3.07354,-81.6375 C6.57352,-85.1374 8.50454,-89.788 8.50454,-94.7362 C8.50454,-99.6845 6.57754,-104.335 3.07354,-107.835 C1.50057,-109.408 -1.04195,-109.408 -2.61492,-107.835 C-4.1879,-106.262 -4.1879,-103.719 -2.61492,-102.147 C-0.635626,-100.167 0.458619,-97.5362 0.458619,-94.7362 C0.458619,-91.9362 -0.631603,-89.3052 -2.61492,-87.3259 C-9.83614,-80.1047 -9.83614,-68.3496 -2.61492,-61.1284 Z " fill="#fff" fill-opacity="1.00" />				<path d="M-18.7269,-5.59141 C-18.4332,-5.59141 -18.1355,-5.62359 -17.8378,-5.68796 C-12.0528,-6.9914 -6.07065,-7.65117 -0.0523014,-7.65117 C-0.0362096,-7.65117 -0.0201177,-7.65117 -2.91416e-06,-7.65117 C2.22067,-7.65117 4.02296,-9.44943 4.02296,-11.6701 C4.02296,-13.8948 2.2247,-15.6971 -2.91416e-06,-15.6971 C-0.0160947,-15.6971 -0.0362096,-15.6971 -0.0563244,-15.6971 C-6.66605,-15.6971 -13.2436,-14.9689 -19.6079,-13.5368 C-21.7763,-13.05 -23.1361,-10.8977 -22.6493,-8.72932 C-22.2228,-6.85864 -20.5654,-5.59141 -18.7269,-5.59141 Z " fill="#fff" fill-opacity="1.00" />				<path d="M-81.1793,60.6708 C-80.9339,60.7191 -80.6926,60.7392 -80.4552,60.7392 C-78.5483,60.7392 -76.8547,59.3794 -76.5006,57.4404 C-72.3208,34.5175 -58.5059,14.1211 -39.5457,2.88899 C-37.6348,1.75854 -37.0032,-0.711557 -38.1337,-2.62246 C-39.2681,-4.53337 -41.7342,-5.16498 -43.6451,-4.03452 C-64.5806,8.36827 -79.8196,30.8083 -84.4138,55.9921 C-84.8161,58.1806 -83.3678,60.2725 -81.1793,60.6708 Z " fill="#fff" fill-opacity="1.00" />				<path d="M103.084,55.1996 C95.7948,12.3912 62.4243,-21.6229 19.9418,-29.8619 C20.0102,-30.5056 20.1148,-31.1533 20.1148,-31.793 C20.1148,-42.8843 11.0913,-51.9078 2.95238e-06,-51.9078 C-11.0913,-51.9078 -20.1148,-42.8843 -20.1148,-31.793 C-20.1148,-31.1533 -20.0142,-30.5056 -19.9418,-29.8619 C-62.4243,-21.6229 -95.7948,12.3912 -103.084,55.1996 C-111.492,59.9587 -120.689,66.9627 -120.689,74.8196 C-120.689,95.2763 -58.2847,109.015 2.86565e-14,109.015 C58.2847,109.015 120.689,95.2763 120.689,74.8196 C120.689,66.9627 111.492,59.9587 103.084,55.1996 Z M-12.0447,-31.097 C-12.0608,-31.3303 -12.0689,-31.5637 -12.0689,-31.7889 C-12.0689,-38.4429 -6.65398,-43.8578 2.86565e-14,-43.8578 C6.65398,-43.8578 12.0689,-38.4429 12.0689,-31.7889 C12.0689,-31.5596 12.0608,-31.3303 12.0447,-31.097 C11.8557,-31.1171 11.6666,-31.1251 11.4815,-31.1453 C10.0976,-31.2981 8.70569,-31.4068 7.3057,-31.5033 C6.79076,-31.5395 6.27984,-31.5918 5.7649,-31.62 C3.85802,-31.7246 1.93907,-31.7849 0.0040229,-31.7849 C-1.93102,-31.7849 -3.84997,-31.7246 -5.75686,-31.62 C-6.2718,-31.5918 -6.78271,-31.5395 -7.29765,-31.5033 C-8.69764,-31.4068 -10.0896,-31.2941 -11.4735,-31.1453 C-11.6666,-31.1251 -11.8557,-31.1211 -12.0447,-31.097 Z M-14.4867,-22.6568 C-12.3264,-22.9787 -10.154,-23.212 -7.97351,-23.389 C-7.52696,-23.4252 -7.08041,-23.4574 -6.63386,-23.4896 C-2.21665,-23.7873 2.22068,-23.7873 6.63789,-23.4896 C7.08444,-23.4574 7.53099,-23.4252 7.97753,-23.389 C10.158,-23.212 12.3304,-22.9787 14.4907,-22.6568 C56.4019,-16.3206 89.5471,17.0579 95.5614,59.0737 C95.7465,60.3651 95.8953,61.6604 96.0281,62.9558 C96.0724,63.4024 96.1327,63.8449 96.1729,64.2915 C96.3298,66.0736 96.4465,67.8558 96.5028,69.638 C33.3021,84.2856 -33.294,84.2856 -96.4948,69.638 C-96.4344,67.8558 -96.3218,66.0736 -96.1649,64.2915 C-96.1246,63.8449 -96.0683,63.4024 -96.02,62.9558 C-95.8873,61.6564 -95.7384,60.361 -95.5534,59.0737 C-89.5431,17.0579 -56.3979,-16.3247 -14.4867,-22.6568 Z M2.86565e-14,100.969 C-68.7766,100.969 -112.643,83.7948 -112.643,74.8196 C-112.643,73.2788 -110.736,69.8834 -104.34,65.4541 C-104.356,65.6834 -104.348,65.9087 -104.364,66.138 C-104.5,68.3426 -104.597,70.5633 -104.597,72.8081 L-104.597,75.9782 L-101.511,76.7224 C-68.3059,84.6879 -34.1509,88.6787 -7.19362e-07,88.6787 C34.1509,88.6787 68.3059,84.6919 101.511,76.7224 L104.597,75.9782 L104.597,72.8081 C104.597,70.5633 104.5,68.3466 104.364,66.138 C104.348,65.9087 104.356,65.6834 104.34,65.4541 C110.736,69.8834 112.643,73.2788 112.643,74.8196 C112.643,83.7948 68.7766,100.969 2.86565e-14,100.969 Z " fill="#fff" fill-opacity="1.00" />			</g>			<path d="M26.8379,62.7318 L26.8379,15.7547 C26.8379,13.0924 24.7768,10.9453 22.0286,10.9453 C20.2251,10.9453 18.9368,11.7183 18.078,13.0924 L0.0429407,39.7156 L-17.9922,13.0924 C-18.9368,11.7183 -20.3968,10.9453 -21.9427,10.9453 C-24.6909,10.9453 -26.8379,13.0924 -26.8379,15.7547 L-26.8379,62.7318 C-26.8379,65.3941 -24.6909,67.5412 -22.0286,67.5412 C-19.3663,67.5412 -17.2192,65.3941 -17.2192,62.7318 L-17.2192,30.9557 L-3.99348,50.9661 C-2.96291,52.5119 -1.50292,53.2849 -0.0429407,53.2849 C1.50292,53.2849 2.96291,52.5119 3.99348,50.9661 L17.2192,30.9557 L17.2192,62.7318 C17.2192,65.3941 19.3663,67.5412 22.0286,67.5412 C24.6909,67.5412 26.8379,65.3941 26.8379,62.7318 Z " fill="#e86c0d" fill-opacity="1.00" />		</g>	</svg>